0, 0, Header, 0, 1, 96
1, 0, Start_track
1, 0, Title_t, "2-Straight EP 1\000"
1, 0, Time_signature, 4, 2, 36, 8
1, 0, Time_signature, 4, 2, 36, 8
1, 1874, Note_on_c, 0, 66, 64
1, 1892, Note_on_c, 0, 69, 73
1, 1913, Note_on_c, 0,93, 88
1, 2261, Note_on_c, 0,90, 76
1, 2614, Note_off_c, 0,93, 64
1, 2635, Note_on_c, 0,88, 58
1, 2657, Note_off_c, 0,90, 64
1, 2741, Note_on_c, 0,86, 64
1, 2766, Note_off_c, 0,88, 64
1, 2837, Note_on_c, 0,85, 64
1, 2933, Control_c, 0, 1, 0
1, 2933, Control_c, 0, 1, 2
1, 2935, Control_c, 0, 1, 2
1, 2935, Control_c, 0, 1, 5
1, 2937, Control_c, 0, 1, 5
1, 2937, Control_c, 0, 1, 8
1, 2939, Control_c, 0, 1, 8
1, 2939, Control_c, 0, 1, 12
1, 2941, Control_c, 0, 1, 12
1, 2941, Control_c, 0, 1, 15
1, 2942, Control_c, 0, 1, 15
1, 2942, Control_c, 0, 1, 20
1, 2945, Control_c, 0, 1, 20
1, 2945, Control_c, 0, 1, 23
1, 2947, Control_c, 0, 1, 23
1, 2947, Control_c, 0, 1, 27
1, 2949, Control_c, 0, 1, 27
1, 2949, Control_c, 0, 1, 31
1, 2950, Control_c, 0, 1, 31
1, 2950, Control_c, 0, 1, 35
1, 2952, Control_c, 0, 1, 35
1, 2952, Control_c, 0, 1, 40
1, 2954, Control_c, 0, 1, 40
1, 2954, Control_c, 0, 1, 45
1, 2956, Control_c, 0, 1, 45
1, 2956, Control_c, 0, 1, 49
1, 2958, Control_c, 0, 1, 49
1, 2958, Control_c, 0, 1, 55
1, 2960, Control_c, 0, 1, 55
1, 2960, Control_c, 0, 1, 60
1, 2962, Control_c, 0, 1, 60
1, 2962, Control_c, 0, 1, 65
1, 2964, Control_c, 0, 1, 65
1, 2964, Control_c, 0, 1, 70
1, 2966, Control_c, 0, 1, 70
1, 2966, Control_c, 0, 1, 76
1, 2968, Control_c, 0, 1, 76
1, 2968, Control_c, 0, 1, 81
1, 2970, Control_c, 0, 1, 81
1, 2970, Control_c, 0, 1, 86
1, 2972, Control_c, 0, 1, 86
1, 2972, Control_c, 0, 1, 92
1, 2973, Control_c, 0, 1, 92
1, 2973, Control_c, 0, 1, 97
1, 2975, Control_c, 0, 1, 97
1, 2975, Control_c, 0, 1, 102
1, 2977, Control_c, 0, 1, 102
1, 2977, Control_c, 0, 1, 107
1, 2979, Control_c, 0, 1, 107
1, 2979, Control_c, 0, 1, 113
1, 2981, Control_c, 0, 1, 113
1, 2981, Control_c, 0, 1, 117
1, 2983, Control_c, 0, 1, 117
1, 2983, Control_c, 0, 1, 122
1, 2985, Control_c, 0, 1, 122
1, 2985, Control_c, 0, 1, 126
1, 2987, Control_c, 0, 1, 126
1, 2987, Control_c, 0, 1, 127
1, 3031, Control_c, 0, 1, 127
1, 3031, Control_c, 0, 1, 126
1, 3033, Control_c, 0, 1, 126
1, 3033, Control_c, 0, 1, 124
1, 3035, Control_c, 0, 1, 124
1, 3035, Control_c, 0, 1, 121
1, 3036, Control_c, 0, 1, 121
1, 3036, Control_c, 0, 1, 118
1, 3039, Control_c, 0, 1, 118
1, 3039, Control_c, 0, 1, 116
1, 3041, Control_c, 0, 1, 116
1, 3041, Control_c, 0, 1, 113
1, 3042, Control_c, 0, 1, 113
1, 3042, Control_c, 0, 1, 110
1, 3044, Control_c, 0, 1, 110
1, 3044, Control_c, 0, 1, 106
1, 3046, Control_c, 0, 1, 106
1, 3046, Control_c, 0, 1, 103
1, 3048, Control_c, 0, 1, 103
1, 3048, Control_c, 0, 1, 100
1, 3050, Control_c, 0, 1, 100
1, 3050, Control_c, 0, 1, 97
1, 3052, Control_c, 0, 1, 97
1, 3052, Control_c, 0, 1, 94
1, 3054, Control_c, 0, 1, 94
1, 3054, Control_c, 0, 1, 92
1, 3056, Control_c, 0, 1, 92
1, 3056, Control_c, 0, 1, 88
1, 3058, Control_c, 0, 1, 88
1, 3058, Control_c, 0, 1, 86
1, 3060, Control_c, 0, 1, 86
1, 3060, Control_c, 0, 1, 84
1, 3062, Control_c, 0, 1, 84
1, 3062, Control_c, 0, 1, 82
1, 3064, Control_c, 0, 1, 82
1, 3064, Control_c, 0, 1, 79
1, 3065, Control_c, 0, 1, 79
1, 3065, Control_c, 0, 1, 77
1, 3067, Control_c, 0, 1, 77
1, 3067, Control_c, 0, 1, 75
1, 3069, Control_c, 0, 1, 75
1, 3069, Control_c, 0, 1, 72
1, 3071, Control_c, 0, 1, 72
1, 3071, Control_c, 0, 1, 70
1, 3073, Control_c, 0, 1, 70
1, 3073, Control_c, 0, 1, 68
1, 3075, Control_c, 0, 1, 68
1, 3075, Control_c, 0, 1, 66
1, 3077, Control_c, 0, 1, 66
1, 3077, Control_c, 0, 1, 64
1, 3079, Control_c, 0, 1, 64
1, 3079, Control_c, 0, 1, 62
1, 3081, Control_c, 0, 1, 62
1, 3081, Control_c, 0, 1, 60
1, 3082, Control_c, 0, 1, 60
1, 3082, Control_c, 0, 1, 58
1, 3084, Control_c, 0, 1, 58
1, 3084, Control_c, 0, 1, 57
1, 3086, Control_c, 0, 1, 57
1, 3086, Control_c, 0, 1, 55
1, 3088, Control_c, 0, 1, 55
1, 3088, Control_c, 0, 1, 53
1, 3090, Control_c, 0, 1, 53
1, 3090, Control_c, 0, 1, 51
1, 3094, Control_c, 0, 1, 51
1, 3094, Control_c, 0, 1, 49
1, 3096, Control_c, 0, 1, 49
1, 3096, Control_c, 0, 1, 47
1, 3099, Control_c, 0, 1, 47
1, 3099, Control_c, 0, 1, 45
1, 3103, Control_c, 0, 1, 45
1, 3103, Control_c, 0, 1, 42
1, 3107, Control_c, 0, 1, 42
1, 3107, Control_c, 0, 1, 40
1, 3111, Control_c, 0, 1, 40
1, 3111, Control_c, 0, 1, 39
1, 3114, Control_c, 0, 1, 39
1, 3114, Control_c, 0, 1, 37
1, 3134, Control_c, 0, 1, 37
1, 3134, Control_c, 0, 1, 39
1, 3137, Control_c, 0, 1, 39
1, 3137, Control_c, 0, 1, 42
1, 3139, Control_c, 0, 1, 42
1, 3139, Control_c, 0, 1, 43
1, 3141, Control_c, 0, 1, 43
1, 3141, Control_c, 0, 1, 46
1, 3143, Control_c, 0, 1, 46
1, 3143, Control_c, 0, 1, 48
1, 3145, Control_c, 0, 1, 48
1, 3145, Control_c, 0, 1, 50
1, 3148, Control_c, 0, 1, 50
1, 3148, Control_c, 0, 1, 53
1, 3149, Control_c, 0, 1, 53
1, 3149, Control_c, 0, 1, 57
1, 3151, Control_c, 0, 1, 57
1, 3151, Control_c, 0, 1, 61
1, 3153, Control_c, 0, 1, 61
1, 3153, Control_c, 0, 1, 65
1, 3155, Control_c, 0, 1, 65
1, 3155, Control_c, 0, 1, 68
1, 3156, Control_c, 0, 1, 68
1, 3156, Control_c, 0, 1, 72
1, 3158, Control_c, 0, 1, 72
1, 3158, Control_c, 0, 1, 77
1, 3160, Control_c, 0, 1, 77
1, 3160, Control_c, 0, 1, 81
1, 3162, Control_c, 0, 1, 81
1, 3162, Control_c, 0, 1, 85
1, 3164, Control_c, 0, 1, 85
1, 3164, Control_c, 0, 1, 89
1, 3166, Control_c, 0, 1, 89
1, 3166, Control_c, 0, 1, 94
1, 3168, Control_c, 0, 1, 94
1, 3168, Control_c, 0, 1, 99
1, 3170, Control_c, 0, 1, 99
1, 3170, Control_c, 0, 1, 103
1, 3172, Control_c, 0, 1, 103
1, 3172, Control_c, 0, 1, 108
1, 3173, Control_c, 0, 1, 108
1, 3173, Control_c, 0, 1, 113
1, 3176, Control_c, 0, 1, 113
1, 3176, Control_c, 0, 1, 117
1, 3178, Control_c, 0, 1, 117
1, 3178, Control_c, 0, 1, 121
1, 3179, Control_c, 0, 1, 121
1, 3179, Control_c, 0, 1, 125
1, 3181, Control_c, 0, 1, 125
1, 3181, Control_c, 0, 1, 127
1, 3221, Control_c, 0, 1, 127
1, 3221, Control_c, 0, 1, 124
1, 3223, Control_c, 0, 1, 124
1, 3223, Control_c, 0, 1, 115
1, 3225, Control_c, 0, 1, 115
1, 3225, Control_c, 0, 1, 102
1, 3227, Control_c, 0, 1, 102
1, 3227, Control_c, 0, 1, 86
1, 3229, Control_c, 0, 1, 86
1, 3229, Control_c, 0, 1, 66
1, 3231, Control_c, 0, 1, 66
1, 3231, Control_c, 0, 1, 43
1, 3233, Control_c, 0, 1, 43
1, 3233, Control_c, 0, 1, 21
1, 3234, Control_c, 0, 1, 21
1, 3234, Control_c, 0, 1, 8
1, 3237, Control_c, 0, 1, 8
1, 3237, Control_c, 0, 1, 2
1, 3239, Control_c, 0, 1, 2
1, 3239, Control_c, 0, 1, 0
1, 3259, Note_off_c, 0,86, 64
1, 3259, Note_off_c, 0,85, 64
1, 3262, Note_off_c, 0, 69, 64
1, 3270, Note_off_c, 0, 66, 64
1, 3352, Note_on_c, 0,88, 93
1, 3376, Note_off_c, 0,88, 64
1, 3457, Note_on_c, 0,86, 99
1, 3463, Note_on_c, 0,85, 80
1, 3480, Note_off_c, 0,86, 64
1, 3557, Note_on_c, 0,86, 87
1, 3567, Note_off_c, 0,85, 64
1, 3572, Note_off_c, 0,86, 64
1, 3606, Note_on_c, 0,85, 101
1, 3640, Note_on_c, 0,83, 64
1, 3641, Note_off_c, 0,85, 64
1, 3791, Note_off_c, 0,83, 64
1, 3792, Note_on_c, 0,88, 93
1, 3814, Note_off_c, 0,88, 64
1, 3889, Note_on_c, 0,85, 90
1, 3904, Note_off_c, 0,85, 64
1, 3981, Note_on_c, 0,83, 81
1, 3994, Note_on_c, 0,88, 66
1, 4002, Note_off_c, 0,83, 64
1, 4135, Note_on_c, 0,85, 88
1, 4155, Note_off_c, 0,88, 64
1, 4181, Note_off_c, 0,85, 64
1, 4181, Note_on_c, 0,83, 76
1, 4206, Note_off_c, 0,83, 64
1, 4227, Note_on_c, 0,81, 82
1, 4254, Note_on_c, 0,79, 51
1, 4256, Note_off_c, 0,81, 64
1, 4285, Note_on_c, 0,78, 73
1, 4291, Note_off_c, 0,79, 64
1, 4301, Note_off_c, 0,78, 64
1, 4329, Note_on_c, 0,76, 78
1, 4373, Note_off_c, 0,76, 64
1, 4429, Note_on_c, 0,74, 82
1, 4456, Note_off_c, 0,74, 64
1, 4519, Note_on_c, 0,73, 83
1, 4551, Note_off_c, 0,73, 64
1, 4569, Note_on_c, 0,69, 93
1, 4600, Note_off_c, 0,69, 64
1, 4665, Note_on_c, 0,69, 91
1, 4673, Note_on_c, 0,59, 29
1, 4681, Note_off_c, 0,69, 64
1, 4719, Note_off_c, 0,59, 64
1, 4757, Note_on_c, 0,66, 79
1, 4761, Note_on_c, 0,64, 80
1, 4778, Note_off_c, 0,66, 64
1, 4805, Note_on_c, 0,62, 30
1, 4820, Note_off_c, 0,64, 64
1, 4847, Note_off_c, 0,62, 64
1, 4859, Note_on_c, 0,62, 31
1, 4878, Note_off_c, 0,62, 64
1, 4906, Note_on_c, 0,65, 64
1, 4909, Note_on_c, 0,66, 55
1, 4916, Note_off_c, 0,65, 64
1, 4922, Note_off_c, 0,66, 64
1, 4954, Note_on_c, 0,64, 76
1, 4964, Note_off_c, 0,64, 64
1, 4997, Note_on_c, 0,62, 89
1, 5015, Note_on_c, 0,64, 75
1, 5020, Note_off_c, 0,62, 64
1, 5043, Note_off_c, 0,64, 64
1, 5047, Note_on_c, 0,71, 76
1, 5064, Note_off_c, 0,71, 64
1, 5095, Note_on_c, 0,69, 104
1, 5139, Note_off_c, 0,69, 64
1, 5139, Note_on_c, 0,71, 76
1, 5191, Note_off_c, 0,71, 64
1, 5283, Note_on_c, 0,73, 101
1, 5316, Note_off_c, 0,73, 64
1, 5329, Note_on_c, 0,66, 73
1, 5346, Note_off_c, 0,66, 64
1, 5377, Note_on_c, 0,62, 89
1, 5415, Note_off_c, 0,62, 64
1, 5428, Note_on_c, 0,62, 76
1, 5445, Note_off_c, 0,62, 64
1, 5532, Note_on_c, 0,64, 91
1, 5615, Note_off_c, 0,64, 64
1, 5617, Note_on_c, 0,65, 85
1, 5633, Note_off_c, 0,65, 64
1, 5669, Note_on_c, 0,64, 89
1, 5715, Note_on_c, 0,62, 79
1, 5718, Note_off_c, 0,64, 64
1, 5727, Note_off_c, 0,62, 64
1, 5763, Note_on_c, 0,62, 90
1, 5775, Note_on_c, 0,64, 69
1, 5786, Note_off_c, 0,62, 64
1, 5861, Note_on_c, 0,66, 78
1, 5867, Note_off_c, 0,64, 64
1, 5876, Note_off_c, 0,66, 64
1, 5907, Note_on_c, 0,66, 85
1, 5952, Note_off_c, 0,66, 64
1, 5955, Note_on_c, 0,67, 87
1, 6009, Note_off_c, 0,67, 64
1, 6103, Note_on_c, 0,64, 89
1, 6120, Note_on_c, 0,66, 62
1, 6125, Note_off_c, 0,64, 64
1, 6153, Note_on_c, 0,62, 76
1, 6157, Note_off_c, 0,66, 64
1, 6185, Note_off_c, 0,62, 64
1, 6191, Note_on_c, 0,73, 47
1, 6241, Note_off_c, 0,73, 64
1, 6246, Note_on_c, 0,69, 80
1, 6264, Note_off_c, 0,69, 64
1, 6301, Note_on_c, 0,69, 95
1, 6375, Note_off_c, 0,69, 64
1, 6390, Note_on_c, 0,71, 91
1, 6410, Note_off_c, 0,71, 64
1, 6439, Note_on_c, 0,72, 109
1, 6491, Note_on_c, 0,73, 83
1, 6491, Note_off_c, 0,72, 64
1, 6508, Note_off_c, 0,73, 64
1, 6537, Note_on_c, 0,74, 111
1, 6551, Note_on_c, 0,71, 65
1, 6560, Note_off_c, 0,74, 64
1, 6608, Note_off_c, 0,71, 64
1, 6637, Note_on_c, 0,69, 89
1, 6655, Note_off_c, 0,69, 64
1, 6681, Note_on_c, 0,74, 104
1, 6729, Note_off_c, 0,74, 64
1, 6733, Note_on_c, 0,73, 99
1, 6804, Note_off_c, 0,73, 64
1, 6869, Note_on_c, 0,62, 92
1, 6913, Note_off_c, 0,62, 64
1, 6967, Note_on_c, 0,66, 90
1, 7000, Note_off_c, 0,66, 64
1, 7061, Note_on_c, 0,69, 92
1, 7075, Note_on_c, 0,73, 79
1, 7086, Note_off_c, 0,69, 64
1, 7157, Note_on_c, 0,74, 70
1, 7165, Note_off_c, 0,73, 64
1, 7174, Note_off_c, 0,74, 64
1, 7205, Note_on_c, 0,76, 116
1, 7255, Note_on_c, 0,81, 82
1, 7260, Note_off_c, 0,76, 64
1, 7274, Note_off_c, 0,81, 64
1, 7301, Note_on_c, 0,78, 93
1, 7312, Note_on_c, 0,74, 76
1, 7324, Note_off_c, 0,78, 64
1, 7348, Note_on_c, 0,88, 75
1, 7355, Note_off_c, 0,74, 64
1, 7366, Note_off_c, 0,88, 64
1, 7396, Note_on_c, 0,89, 101
1, 7447, Note_on_c, 0,88, 95
1, 7454, Note_off_c, 0,89, 64
1, 7520, Note_off_c, 0,88, 64
1, 7589, Note_on_c, 0,85, 107
1, 7633, Note_off_c, 0,85, 64
1, 7639, Note_on_c, 0,83, 86
1, 7659, Note_off_c, 0,83, 64
1, 7729, Note_on_c, 0,88, 97
1, 7818, Note_off_c, 0,88, 64
1, 7829, Note_on_c, 0,85, 102
1, 7888, Note_off_c, 0,85, 64
1, 7926, Note_on_c, 0,83, 55
1, 7930, Note_on_c, 0,81, 44
1, 7941, Note_off_c, 0,83, 64
1, 7943, Note_off_c, 0,81, 64
1, 7973, Note_on_c, 0,78, 94
1, 8017, Note_off_c, 0,78, 64
1, 8018, Note_on_c, 0,79, 84
1, 8035, Note_off_c, 0,79, 64
1, 8065, Note_on_c, 0,78, 104
1, 8077, Note_on_c, 0,76, 79
1, 8088, Note_off_c, 0,78, 64
1, 8114, Note_on_c, 0,74, 86
1, 8134, Note_off_c, 0,76, 64
1, 8134, Note_off_c, 0,74, 64
1, 8163, Note_on_c, 0,76, 118
1, 8207, Note_off_c, 0,76, 64
1, 8309, Note_on_c, 0,77, 93
1, 8312, Note_on_c, 0,81, 56
1, 8330, Note_off_c, 0,77, 64
1, 8360, Note_on_c, 0,77, 97
1, 8374, Note_off_c, 0,81, 64
1, 8404, Note_on_c, 0,79, 81
1, 8408, Note_off_c, 0,77, 64
1, 8448, Note_off_c, 0,79, 64
1, 8457, Note_on_c, 0,81, 107
1, 8507, Note_on_c, 0,78, 84
1, 8509, Note_off_c, 0,81, 64
1, 8522, Note_off_c, 0,78, 64
1, 8540, Note_on_c, 0,74, 29
1, 8549, Note_off_c, 0,74, 64
1, 8595, Note_on_c, 0,88, 102
1, 8676, Note_off_c, 0,88, 64
1, 8694, Note_on_c, 0,89, 94
1, 8745, Note_on_c, 0,88, 98
1, 8755, Note_off_c, 0,89, 64
1, 8789, Note_on_c, 0,85, 90
1, 8791, Note_off_c, 0,88, 64
1, 8818, Note_off_c, 0,85, 64
1, 8835, Note_on_c, 0,83, 107
1, 8847, Note_on_c, 0,88, 33
1, 8848, Note_on_c, 0,85, 82
1, 8856, Note_off_c, 0,83, 64
1, 8861, Note_off_c, 0,88, 64
1, 8870, Note_on_c, 0,83, 75
1, 8881, Note_off_c, 0,85, 64
1, 8929, Note_off_c, 0,83, 64
1, 8931, Note_on_c, 0,81, 109
1, 8960, Note_off_c, 0,81, 64
1, 8977, Note_on_c, 0,78, 90
1, 9016, Note_off_c, 0,78, 64
1, 9027, Note_on_c, 0,79, 101
1, 9071, Note_on_c, 0,78, 39
1, 9083, Note_off_c, 0,79, 64
1, 9110, Note_off_c, 0,78, 64
1, 9171, Note_on_c, 0,76, 107
1, 9219, Note_off_c, 0,76, 64
1, 9267, Note_on_c, 0,74, 101
1, 9271, Note_on_c, 0,81, 85
1, 9290, Note_off_c, 0,74, 64
1, 9294, Note_on_c, 0,79, 74
1, 9306, Note_off_c, 0,81, 64
1, 9348, Note_off_c, 0,79, 64
1, 9363, Note_on_c, 0,78, 104
1, 9463, Note_on_c, 0,76, 99
1, 9466, Note_off_c, 0,78, 64
1, 9511, Note_off_c, 0,76, 64
1, 9563, Note_on_c, 0,67, 109
1, 9607, Note_off_c, 0,67, 64
1, 9704, Note_on_c, 0,73, 113
1, 9732, Note_off_c, 0,73, 64
1, 9734, Note_on_c, 0,71, 89
1, 9750, Note_off_c, 0,71, 64
1, 9774, Note_on_c, 0,67, 126
1, 9854, Note_off_c, 0,67, 64
1, 9893, Note_on_c, 0,76, 114
1, 9916, Note_off_c, 0,76, 64
1, 9926, Note_on_c, 0,73, 92
1, 9945, Note_off_c, 0,73, 64
1, 9968, Note_on_c, 0,73, 122
1, 10046, Note_off_c, 0,73, 64
1, 10085, Note_on_c, 0,74, 99
1, 10105, Note_off_c, 0,74, 64
1, 10114, Note_on_c, 0,71, 94
1, 10131, Note_off_c, 0,71, 64
1, 10151, Note_on_c, 0,69, 116
1, 10211, Note_off_c, 0,69, 64
1, 10237, Note_on_c, 0,71, 88
1, 10258, Note_off_c, 0,71, 64
1, 10260, Note_on_c, 0,73, 72
1, 10279, Note_off_c, 0,73, 64
1, 10282, Note_on_c, 0,66, 90
1, 10304, Note_off_c, 0,66, 64
1, 10304, Note_on_c, 0,62, 94
1, 10327, Note_on_c, 0,62, 85
1, 10328, Note_off_c, 0,62, 64
1, 10346, Note_off_c, 0,62, 64
1, 10471, Note_on_c, 0,64, 113
1, 10496, Note_off_c, 0,64, 64
1, 10515, Note_on_c, 0,71, 76
1, 10530, Note_off_c, 0,71, 64
1, 10540, Note_on_c, 0,69, 101
1, 10580, Note_off_c, 0,69, 64
1, 10609, Note_on_c, 0,67, 114
1, 10629, Note_off_c, 0,67, 64
1, 10661, Note_on_c, 0,66, 113
1, 10684, Note_off_c, 0,66, 64
1, 10707, Note_on_c, 0,69, 102
1, 10726, Note_off_c, 0,69, 64
1, 10755, Note_on_c, 0,73, 104
1, 10774, Note_on_c, 0,71, 67
1, 10778, Note_off_c, 0,73, 64
1, 10796, Note_on_c, 0,69, 68
1, 10805, Note_off_c, 0,71, 64
1, 10813, Note_on_c, 0,71, 78
1, 10813, Note_off_c, 0,69, 64
1, 10832, Note_off_c, 0,71, 64
1, 10834, Note_on_c, 0,72, 67
1, 10842, Note_off_c, 0,72, 64
1, 10851, Note_on_c, 0,73, 81
1, 10878, Note_on_c, 0,74, 98
1, 10882, Note_off_c, 0,73, 64
1, 10901, Note_on_c, 0,76, 113
1, 10901, Note_off_c, 0,74, 64
1, 10951, Note_off_c, 0,76, 64
1, 10999, Note_on_c, 0,79, 99
1, 11014, Note_off_c, 0,79, 64
1, 11047, Note_on_c, 0,81, 107
1, 11068, Note_off_c, 0,81, 64
1, 11076, Note_on_c, 0,83, 111
1, 11097, Note_on_c, 0,86, 111
1, 11102, Note_off_c, 0,83, 64
1, 11149, Note_off_c, 0,86, 64
1, 11239, Note_on_c, 0,88, 105
1, 11272, Note_off_c, 0,88, 64
1, 11288, Note_on_c, 0,91, 93
1, 11301, Note_off_c, 0,91, 64
1, 11314, Note_on_c, 0,86, 114
1, 11397, Note_off_c, 0,86, 64
1, 11439, Note_on_c, 0,88, 111
1, 11464, Note_off_c, 0,88, 64
1, 11485, Note_on_c, 0,91, 86
1, 11500, Note_off_c, 0,91, 64
1, 11512, Note_on_c, 0,86, 116
1, 11590, Note_off_c, 0,86, 64
1, 11627, Note_on_c, 0,88, 120
1, 11650, Note_off_c, 0,88, 64
1, 11675, Note_on_c, 0,91, 95
1, 11696, Note_off_c, 0,91, 64
1, 11722, Note_on_c, 0,86, 104
1, 11744, Note_off_c, 0,86, 64
1, 11769, Note_on_c, 0,88, 111
1, 11825, Note_off_c, 0,88, 64
1, 11867, Note_on_c, 0,91, 123
1, 11942, Note_off_c, 0,91, 64
1, 11960, Note_on_c, 0,86, 78
1, 11974, Note_off_c, 0,86, 64
1, 12008, Note_on_c, 0,88, 87
1, 12023, Note_off_c, 0,88, 64
1, 12057, Note_on_c, 0,91, 107
1, 12074, Note_off_c, 0,91, 64
1, 12103, Note_on_c, 0,86, 113
1, 12122, Note_off_c, 0,86, 64
1, 12149, Note_on_c, 0,88, 97
1, 12168, Note_off_c, 0,88, 64
1, 12201, Note_on_c, 0,89, 122
1, 12222, Note_off_c, 0,89, 64
1, 12249, Note_on_c, 0,93, 85
1, 12268, Note_off_c, 0,93, 64
1, 12299, Note_on_c, 0,91, 118
1, 12320, Note_on_c, 0,93, 82
1, 12327, Note_off_c, 0,91, 64
1, 12350, Note_off_c, 0,93, 64
1, 12393, Note_on_c, 0,90, 111
1, 12395, Note_on_c, 0,88, 107
1, 12420, Note_off_c, 0,90, 64
1, 12493, Note_off_c, 0,88, 64
1, 12585, Note_on_c, 0,86, 120
1, 12642, Note_off_c, 0,86, 64
1, 12681, Note_on_c, 0,85, 109
1, 12702, Note_on_c, 0,86, 101
1, 12704, Note_off_c, 0,85, 64
1, 12744, Note_off_c, 0,86, 64
1, 12786, Note_on_c, 0,85, 84
1, 12824, Note_off_c, 0,85, 64
1, 12869, Note_on_c, 0,83, 98
1, 12936, Note_off_c, 0,83, 64
1, 12968, Note_on_c, 0,86, 104
1, 13013, Note_off_c, 0,86, 64
1, 13014, Note_on_c, 0,83, 105
1, 13079, Note_off_c, 0,83, 64
1, 13111, Note_on_c, 0,81, 101
1, 13121, Note_on_c, 0,85, 70
1, 13134, Note_off_c, 0,81, 64
1, 13163, Note_on_c, 0,83, 62
1, 13171, Note_off_c, 0,85, 64
1, 13188, Note_off_c, 0,83, 64
1, 13215, Note_on_c, 0,81, 105
1, 13307, Note_off_c, 0,81, 64
1, 13309, Note_on_c, 0,79, 114
1, 13378, Note_off_c, 0,79, 64
1, 13401, Note_on_c, 0,78, 109
1, 13447, Note_off_c, 0,78, 64
1, 13447, Note_on_c, 0,76, 84
1, 13481, Note_off_c, 0,76, 64
1, 13589, Note_on_c, 0,74, 91
1, 13612, Note_on_c, 0,73, 84
1, 13614, Note_off_c, 0,74, 64
1, 13630, Note_on_c, 0,69, 72
1, 13643, Note_off_c, 0,73, 64
1, 13657, Note_on_c, 0,69, 60
1, 13658, Note_off_c, 0,69, 64
1, 13669, Note_off_c, 0,69, 64
1, 13681, Note_on_c, 0,71, 81
1, 13702, Note_on_c, 0,76, 73
1, 13706, Note_off_c, 0,71, 64
1, 13718, Note_off_c, 0,76, 64
1, 13729, Note_on_c, 0,66, 81
1, 13729, Note_on_c, 0,69, 70
1, 13739, Note_off_c, 0,66, 64
1, 13743, Note_off_c, 0,69, 64
1, 13752, Note_on_c, 0,73, 63
1, 13752, Note_on_c, 0,71, 65
1, 13766, Note_off_c, 0,73, 64
1, 13770, Note_on_c, 0,69, 83
1, 13771, Note_off_c, 0,71, 64
1, 13793, Note_on_c, 0,71, 75
1, 13797, Note_off_c, 0,69, 64
1, 13820, Note_off_c, 0,71, 64
1, 13825, Note_on_c, 0,72, 40
1, 13829, Note_on_c, 0,69, 80
1, 13835, Note_off_c, 0,72, 64
1, 13854, Note_on_c, 0,71, 67
1, 13855, Note_off_c, 0,69, 64
1, 13879, Note_on_c, 0,76, 72
1, 13885, Note_off_c, 0,71, 64
1, 13902, Note_on_c, 0,72, 66
1, 13905, Note_off_c, 0,76, 64
1, 13914, Note_off_c, 0,72, 64
1, 13927, Note_on_c, 0,71, 73
1, 13948, Note_off_c, 0,71, 64
1, 13951, Note_on_c, 0,72, 81
1, 13975, Note_on_c, 0,73, 85
1, 13975, Note_off_c, 0,72, 64
1, 13997, Note_on_c, 0,74, 67
1, 14000, Note_off_c, 0,73, 64
1, 14023, Note_on_c, 0,76, 64
1, 14025, Note_off_c, 0,74, 64
1, 14042, Note_on_c, 0,81, 56
1, 14046, Note_off_c, 0,76, 64
1, 14063, Note_on_c, 0,77, 63
1, 14073, Note_off_c, 0,81, 64
1, 14088, Note_on_c, 0,76, 57
1, 14088, Note_off_c, 0,77, 64
1, 14109, Note_off_c, 0,76, 64
1, 14111, Note_on_c, 0,74, 82
1, 14130, Note_off_c, 0,74, 64
1, 14131, Note_on_c, 0,69, 67
1, 14154, Note_on_c, 0,73, 57
1, 14155, Note_off_c, 0,69, 64
1, 14177, Note_on_c, 0,76, 54
1, 14178, Note_off_c, 0,73, 64
1, 14203, Note_off_c, 0,76, 64
1, 14208, Note_on_c, 0,73, 98
1, 14247, Note_off_c, 0,73, 64
1, 14309, Note_on_c, 0,71, 120
1, 14351, Note_off_c, 0,71, 64
1, 14405, Note_on_c, 0,62, 109
1, 14427, Note_on_c, 0,66, 43
1, 14427, Note_off_c, 0,62, 64
1, 14441, Note_on_c, 0,69, 76
1, 14454, Note_off_c, 0,66, 64
1, 14457, Note_on_c, 0,73, 69
1, 14461, Note_off_c, 0,69, 64
1, 14478, Note_on_c, 0,76, 80
1, 14478, Note_off_c, 0,73, 64
1, 14497, Note_off_c, 0,76, 64
1, 14500, Note_on_c, 0,73, 93
1, 14522, Note_on_c, 0,71, 70
1, 14527, Note_off_c, 0,73, 64
1, 14546, Note_on_c, 0,71, 74
1, 14550, Note_off_c, 0,71, 64
1, 14566, Note_on_c, 0,62, 79
1, 14576, Note_off_c, 0,71, 64
1, 14592, Note_on_c, 0,64, 63
1, 14601, Note_off_c, 0,62, 64
1, 14609, Note_on_c, 0,67, 72
1, 14618, Note_off_c, 0,64, 64
1, 14633, Note_off_c, 0,67, 64
1, 14634, Note_on_c, 0,69, 68
1, 14661, Note_on_c, 0,66, 79
1, 14662, Note_off_c, 0,69, 64
1, 14681, Note_off_c, 0,66, 64
1, 14682, Note_on_c, 0,64, 53
1, 14704, Note_off_c, 0,64, 64
1, 14707, Note_on_c, 0,64, 62
1, 14730, Note_on_c, 0,66, 68
1, 14734, Note_off_c, 0,64, 64
1, 14753, Note_on_c, 0,66, 68
1, 14756, Note_off_c, 0,66, 64
1, 14780, Note_off_c, 0,66, 64
1, 14781, Note_on_c, 0,67, 73
1, 14807, Note_on_c, 0,66, 86
1, 14808, Note_off_c, 0,67, 64
1, 14833, Note_off_c, 0,66, 64
1, 14833, Note_on_c, 0,64, 56
1, 14854, Note_on_c, 0,62, 55
1, 14855, Note_off_c, 0,64, 64
1, 14870, Note_off_c, 0,62, 64
1, 14876, Note_on_c, 0,64, 67
1, 14899, Note_on_c, 0,64, 69
1, 14901, Note_off_c, 0,64, 64
1, 14923, Note_on_c, 0,66, 64
1, 14924, Note_off_c, 0,64, 64
1, 14946, Note_on_c, 0,62, 62
1, 14946, Note_off_c, 0,66, 64
1, 14976, Note_on_c, 0,62, 88
1, 14979, Note_off_c, 0,62, 64
1, 14996, Note_on_c, 0,65, 83
1, 15002, Note_off_c, 0,62, 64
1, 15052, Note_off_c, 0,65, 64
1, 15083, Note_on_c, 0,66, 102
1, 15125, Note_off_c, 0,66, 64
1, 15131, Note_on_c, 0,64, 64
1, 15148, Note_off_c, 0,64, 64
1, 15182, Note_on_c, 0,69, 98
1, 15185, Note_on_c, 0,66, 49
1, 15192, Note_off_c, 0,69, 64
1, 15207, Note_off_c, 0,66, 64
1, 15219, Note_on_c, 0,64, 76
1, 15237, Note_off_c, 0,64, 64
1, 15246, Note_on_c, 0,69, 91
1, 15275, Note_off_c, 0,69, 64
1, 15299, Note_on_c, 0,66, 83
1, 15313, Note_off_c, 0,66, 64
1, 15324, Note_on_c, 0,64, 91
1, 15340, Note_off_c, 0,64, 64
1, 15372, Note_on_c, 0,71, 101
1, 15386, Note_off_c, 0,71, 64
1, 15399, Note_on_c, 0,69, 97
1, 15414, Note_off_c, 0,69, 64
1, 15428, Note_on_c, 0,71, 97
1, 15442, Note_off_c, 0,71, 64
1, 15460, Note_on_c, 0,76, 91
1, 15476, Note_off_c, 0,76, 64
1, 15489, Note_on_c, 0,72, 104
1, 15507, Note_off_c, 0,72, 64
1, 15520, Note_on_c, 0,71, 99
1, 15536, Note_off_c, 0,71, 64
1, 15553, Note_on_c, 0,69, 107
1, 15570, Note_off_c, 0,69, 64
1, 15584, Note_on_c, 0,66, 98
1, 15599, Note_off_c, 0,66, 64
1, 15613, Note_on_c, 0,62, 99
1, 15655, Note_off_c, 0,62, 64
1, 15667, Note_on_c, 0,73, 120
1, 15672, Note_on_c, 0,69, 62
1, 15678, Note_off_c, 0,73, 64
1, 15716, Note_off_c, 0,69, 64
1, 15751, Note_on_c, 0,69, 123
1, 15788, Note_off_c, 0,69, 64
1, 15899, Note_on_c, 0,69, 56
1, 15910, Note_on_c, 0,59, 77
1, 15917, Note_off_c, 0,69, 64
1, 15918, Note_off_c, 0,59, 64
1, 15920, Note_on_c, 0,66, 62
1, 15924, Note_on_c, 0,64, 67
1, 15928, Note_off_c, 0,66, 64
1, 15932, Note_on_c, 0,69, 72
1, 15933, Note_off_c, 0,64, 64
1, 15949, Note_off_c, 0,69, 64
1, 15953, Note_on_c, 0,66, 85
1, 15973, Note_on_c, 0,65, 64
1, 15974, Note_off_c, 0,66, 64
1, 15983, Note_on_c, 0,64, 75
1, 15991, Note_off_c, 0,65, 64
1, 16001, Note_off_c, 0,64, 64
1, 16003, Note_on_c, 0,62, 80
1, 16022, Note_on_c, 0,61, 69
1, 16024, Note_off_c, 0,62, 64
1, 16029, Note_on_c, 0,59, 73
1, 16034, Note_off_c, 0,61, 64
1, 16043, Note_off_c, 0,59, 64
1, 16052, Note_on_c, 0,57, 89
1, 16068, Note_off_c, 0,57, 64
1, 16074, Note_on_c, 0,64, 61
1, 16089, Note_on_c, 0,64, 87
1, 16089, Note_off_c, 0,64, 64
1, 16106, Note_on_c, 0,66, 73
1, 16110, Note_off_c, 0,64, 64
1, 16116, Note_off_c, 0,66, 64
1, 16118, Note_on_c, 0,71, 73
1, 16124, Note_off_c, 0,71, 64
1, 16131, Note_on_c, 0,72, 46
1, 16140, Note_on_c, 0,73, 76
1, 16141, Note_off_c, 0,72, 64
1, 16156, Note_on_c, 0,76, 60
1, 16159, Note_off_c, 0,73, 64
1, 16162, Note_on_c, 0,64, 72
1, 16169, Note_off_c, 0,76, 64
1, 16177, Note_on_c, 0,69, 82
1, 16179, Note_off_c, 0,64, 64
1, 16183, Note_off_c, 0,69, 64
1, 16198, Note_on_c, 0,66, 55
1, 16198, Note_on_c, 0,64, 67
1, 16206, Note_off_c, 0,66, 64
1, 16230, Note_off_c, 0,64, 64
1, 16233, Note_on_c, 0,62, 54
1, 16248, Note_on_c, 0,64, 87
1, 16249, Note_off_c, 0,62, 64
1, 16265, Note_on_c, 0,66, 111
1, 16269, Note_off_c, 0,64, 64
1, 16348, Note_off_c, 0,66, 64
1, 16362, Note_on_c, 0,62, 109
1, 16421, Note_off_c, 0,62, 64
1, 16470, Note_on_c, 0,62, 116
1, 16475, Note_on_c, 0,64, 48
1, 16482, Note_off_c, 0,62, 64
1, 16488, Note_off_c, 0,64, 64
1, 16521, Note_on_c, 0,62, 118
1, 16546, Note_on_c, 0,64, 70
1, 16549, Note_off_c, 0,62, 64
1, 16559, Note_on_c, 0,69, 62
1, 16571, Note_off_c, 0,64, 64
1, 16593, Note_off_c, 0,69, 64
1, 16594, Note_on_c, 0,66, 81
1, 16621, Note_on_c, 0,64, 80
1, 16627, Note_off_c, 0,66, 64
1, 16638, Note_on_c, 0,62, 70
1, 16645, Note_off_c, 0,64, 64
1, 16665, Note_off_c, 0,62, 64
1, 16667, Note_on_c, 0,62, 109
1, 16692, Note_on_c, 0,64, 65
1, 16696, Note_off_c, 0,62, 64
1, 16711, Note_on_c, 0,64, 62
1, 16713, Note_off_c, 0,64, 64
1, 16734, Note_off_c, 0,64, 64
1, 16736, Note_on_c, 0,66, 82
1, 16758, Note_on_c, 0,62, 74
1, 16766, Note_off_c, 0,66, 64
1, 16780, Note_on_c, 0,62, 52
1, 16781, Note_off_c, 0,62, 64
1, 16797, Note_off_c, 0,62, 64
1, 16801, Note_on_c, 0,64, 85
1, 16820, Note_off_c, 0,64, 64
1, 16825, Note_on_c, 0,62, 70
1, 16851, Note_off_c, 0,62, 64
1, 16861, Note_on_c, 0,64, 59
1, 16886, Note_on_c, 0,67, 73
1, 16889, Note_off_c, 0,64, 64
1, 16907, Note_on_c, 0,66, 73
1, 16909, Note_off_c, 0,67, 64
1, 16936, Note_off_c, 0,66, 64
1, 16938, Note_on_c, 0,64, 70
1, 16961, Note_off_c, 0,64, 64
1, 16966, Note_on_c, 0,69, 94
1, 16988, Note_on_c, 0,66, 73
1, 16991, Note_off_c, 0,69, 64
1, 17005, Note_on_c, 0,64, 62
1, 17011, Note_off_c, 0,66, 64
1, 17027, Note_off_c, 0,64, 64
1, 17028, Note_on_c, 0,62, 76
1, 17047, Note_on_c, 0,63, 82
1, 17048, Note_off_c, 0,62, 64
1, 17132, Note_off_c, 0,63, 64
1, 17141, Note_on_c, 0,59, 113
1, 17204, Note_off_c, 0,59, 64
1, 17231, Note_on_c, 0,59, 90
1, 17249, Note_off_c, 0,59, 64
1, 17277, Note_on_c, 0,57, 79
1, 17298, Note_on_c, 0,59, 73
1, 17303, Note_off_c, 0,57, 64
1, 17314, Note_on_c, 0,61, 73
1, 17316, Note_off_c, 0,59, 64
1, 17321, Note_off_c, 0,61, 64
1, 17338, Note_on_c, 0,59, 66
1, 17354, Note_on_c, 0,59, 11
1, 17356, Note_off_c, 0,59, 64
1, 17370, Note_on_c, 0,59, 70
1, 17373, Note_off_c, 0,59, 64
1, 17381, Note_off_c, 0,59, 64
1, 17383, Note_on_c, 0,59, 73
1, 17406, Note_on_c, 0,57, 76
1, 17406, Note_off_c, 0,59, 64
1, 17421, Note_on_c, 0,59, 75
1, 17425, Note_off_c, 0,57, 64
1, 17435, Note_on_c, 0,57, 70
1, 17445, Note_off_c, 0,59, 64
1, 17452, Note_off_c, 0,57, 64
1, 17452, Note_on_c, 0,64, 46
1, 17460, Note_off_c, 0,64, 64
1, 17468, Note_on_c, 0,64, 63
1, 17481, Note_on_c, 0,64, 18
1, 17487, Note_off_c, 0,64, 64
1, 17498, Note_on_c, 0,66, 67
1, 17506, Note_off_c, 0,64, 64
1, 17508, Note_off_c, 0,66, 64
1, 17509, Note_on_c, 0,71, 75
1, 17529, Note_on_c, 0,62, 52
1, 17529, Note_on_c, 0,66, 47
1, 17529, Note_off_c, 0,71, 64
1, 17540, Note_off_c, 0,62, 64
1, 17546, Note_on_c, 0,66, 73
1, 17558, Note_on_c, 0,69, 64
1, 17558, Note_off_c, 0,66, 64
1, 17564, Note_off_c, 0,66, 64
1, 17565, Note_off_c, 0,69, 64
1, 17567, Note_on_c, 0,73, 76
1, 17583, Note_on_c, 0,71, 57
1, 17584, Note_off_c, 0,73, 64
1, 17600, Note_on_c, 0,67, 74
1, 17602, Note_off_c, 0,71, 64
1, 17611, Note_on_c, 0,74, 69
1, 17619, Note_off_c, 0,67, 64
1, 17622, Note_on_c, 0,71, 67
1, 17623, Note_off_c, 0,74, 64
1, 17629, Note_off_c, 0,71, 64
1, 17638, Note_on_c, 0,76, 58
1, 17640, Note_on_c, 0,72, 58
1, 17648, Note_off_c, 0,76, 64
1, 17653, Note_off_c, 0,72, 64
1, 17654, Note_on_c, 0,71, 47
1, 17663, Note_on_c, 0,69, 30
1, 17671, Note_off_c, 0,71, 64
1, 17677, Note_on_c, 0,64, 70
1, 17679, Note_off_c, 0,69, 64
1, 17696, Note_on_c, 0,73, 61
1, 17696, Note_off_c, 0,64, 64
1, 17698, Note_on_c, 0,71, 56
1, 17704, Note_off_c, 0,73, 64
1, 17711, Note_on_c, 0,67, 79
1, 17713, Note_off_c, 0,71, 64
1, 17726, Note_on_c, 0,66, 70
1, 17729, Note_off_c, 0,67, 64
1, 17733, Note_off_c, 0,66, 64
1, 17736, Note_on_c, 0,67, 75
1, 17746, Note_off_c, 0,67, 64
1, 17754, Note_on_c, 0,69, 64
1, 17765, Note_on_c, 0,67, 31
1, 17770, Note_off_c, 0,69, 64
1, 17783, Note_on_c, 0,69, 79
1, 17789, Note_off_c, 0,67, 64
1, 17796, Note_off_c, 0,69, 64
1, 17816, Note_on_c, 0,67, 111
1, 17845, Note_on_c, 0,69, 68
1, 17852, Note_off_c, 0,67, 64
1, 17860, Note_off_c, 0,69, 64
1, 17868, Note_on_c, 0,66, 58
1, 17898, Note_on_c, 0,64, 109
1, 17908, Note_off_c, 0,66, 64
1, 17917, Note_off_c, 0,64, 64
1, 17952, Note_on_c, 0,69, 97
1, 17957, Note_on_c, 0,66, 50
1, 17965, Note_off_c, 0,69, 64
1, 17972, Note_off_c, 0,66, 64
1, 18005, Note_on_c, 0,64, 111
1, 18024, Note_off_c, 0,64, 64
1, 18055, Note_on_c, 0,62, 123
1, 18078, Note_on_c, 0,64, 78
1, 18081, Note_off_c, 0,62, 64
1, 18087, Note_on_c, 0,64, 83
1, 18095, Note_off_c, 0,64, 64
1, 18105, Note_on_c, 0,66, 55
1, 18111, Note_off_c, 0,64, 64
1, 18122, Note_on_c, 0,62, 74
1, 18123, Note_off_c, 0,66, 64
1, 18140, Note_off_c, 0,62, 64
1, 18141, Note_on_c, 0,62, 74
1, 18159, Note_on_c, 0,64, 64
1, 18161, Note_off_c, 0,62, 64
1, 18181, Note_on_c, 0,71, 41
1, 18187, Note_on_c, 0,69, 83
1, 18189, Note_off_c, 0,64, 64
1, 18189, Note_off_c, 0,71, 64
1, 18205, Note_on_c, 0,66, 51
1, 18210, Note_off_c, 0,69, 64
1, 18214, Note_on_c, 0,65, 64
1, 18225, Note_off_c, 0,66, 64
1, 18228, Note_on_c, 0,64, 50
1, 18233, Note_off_c, 0,65, 64
1, 18240, Note_off_c, 0,64, 64
1, 18243, Note_on_c, 0,62, 78
1, 18258, Note_off_c, 0,62, 64
1, 18261, Note_on_c, 0,61, 75
1, 18279, Note_on_c, 0,59, 70
1, 18281, Note_off_c, 0,61, 64
1, 18297, Note_on_c, 0,64, 67
1, 18305, Note_on_c, 0,66, 61
1, 18305, Note_off_c, 0,59, 64
1, 18305, Note_off_c, 0,64, 64
1, 18318, Note_on_c, 0,62, 80
1, 18332, Note_off_c, 0,66, 64
1, 18333, Note_off_c, 0,62, 64
1, 18341, Note_on_c, 0,62, 94
1, 18360, Note_on_c, 0,64, 77
1, 18365, Note_off_c, 0,62, 64
1, 18372, Note_on_c, 0,64, 76
1, 18379, Note_off_c, 0,64, 64
1, 18386, Note_on_c, 0,64, 53
1, 18390, Note_off_c, 0,64, 64
1, 18399, Note_off_c, 0,64, 64
1, 18401, Note_on_c, 0,66, 73
1, 18421, Note_on_c, 0,62, 73
1, 18422, Note_off_c, 0,66, 64
1, 18439, Note_on_c, 0,62, 72
1, 18445, Note_off_c, 0,62, 64
1, 18456, Note_on_c, 0,64, 64
1, 18458, Note_off_c, 0,62, 64
1, 18478, Note_on_c, 0,64, 80
1, 18487, Note_off_c, 0,64, 64
1, 18499, Note_on_c, 0,64, 79
1, 18502, Note_off_c, 0,64, 64
1, 18510, Note_on_c, 0,71, 80
1, 18514, Note_off_c, 0,64, 64
1, 18543, Note_on_c, 0,69, 76
1, 18545, Note_on_c, 0,66, 24
1, 18550, Note_off_c, 0,71, 64
1, 18553, Note_off_c, 0,69, 64
1, 18559, Note_on_c, 0,64, 58
1, 18564, Note_on_c, 0,64, 45
1, 18566, Note_off_c, 0,66, 64
1, 18571, Note_off_c, 0,64, 64
1, 18577, Note_on_c, 0,64, 71
1, 18578, Note_off_c, 0,64, 64
1, 18596, Note_off_c, 0,64, 64
1, 18603, Note_on_c, 0,66, 68
1, 18608, Note_on_c, 0,62, 42
1, 18616, Note_off_c, 0,66, 64
1, 18619, Note_on_c, 0,69, 71
1, 18630, Note_off_c, 0,62, 64
1, 18639, Note_on_c, 0,66, 66
1, 18642, Note_off_c, 0,69, 64
1, 18650, Note_off_c, 0,66, 64
1, 18654, Note_on_c, 0,64, 61
1, 18670, Note_off_c, 0,64, 64
1, 18670, Note_on_c, 0,62, 73
1, 18686, Note_on_c, 0,64, 59
1, 18691, Note_off_c, 0,62, 64
1, 18696, Note_on_c, 0,62, 76
1, 18700, Note_off_c, 0,64, 64
1, 18717, Note_on_c, 0,64, 64
1, 18719, Note_on_c, 0,66, 62
1, 18721, Note_off_c, 0,62, 64
1, 18725, Note_off_c, 0,64, 64
1, 18740, Note_on_c, 0,62, 50
1, 18744, Note_off_c, 0,66, 64
1, 18752, Note_off_c, 0,62, 64
1, 18756, Note_on_c, 0,62, 58
1, 18767, Note_off_c, 0,62, 64
1, 18773, Note_on_c, 0,64, 73
1, 18796, Note_on_c, 0,64, 71
1, 18802, Note_off_c, 0,64, 64
1, 18806, Note_on_c, 0,66, 87
1, 18834, Note_off_c, 0,64, 64
1, 18834, Note_on_c, 0,62, 122
1, 18840, Note_off_c, 0,66, 64
1, 18898, Note_off_c, 0,62, 64
1, 18970, Note_on_c, 0,64, 107
1, 18988, Note_off_c, 0,64, 64
1, 19017, Note_on_c, 0,67, 122
1, 19042, Note_on_c, 0,69, 78
1, 19050, Note_off_c, 0,67, 64
1, 19054, Note_on_c, 0,67, 70
1, 19063, Note_off_c, 0,69, 64
1, 19078, Note_on_c, 0,62, 73
1, 19093, Note_off_c, 0,67, 64
1, 19107, Note_on_c, 0,69, 89
1, 19111, Note_off_c, 0,62, 64
1, 19131, Note_on_c, 0,66, 98
1, 19136, Note_off_c, 0,69, 64
1, 19163, Note_on_c, 0,64, 81
1, 19171, Note_off_c, 0,66, 64
1, 19180, Note_on_c, 0,62, 84
1, 19186, Note_off_c, 0,64, 64
1, 19204, Note_off_c, 0,62, 64
1, 19206, Note_on_c, 0,64, 87
1, 19228, Note_on_c, 0,64, 75
1, 19230, Note_off_c, 0,64, 64
1, 19247, Note_on_c, 0,64, 71
1, 19253, Note_off_c, 0,64, 64
1, 19279, Note_on_c, 0,66, 78
1, 19281, Note_off_c, 0,64, 64
1, 19299, Note_on_c, 0,62, 84
1, 19308, Note_off_c, 0,66, 64
1, 19322, Note_on_c, 0,62, 80
1, 19328, Note_off_c, 0,62, 64
1, 19345, Note_off_c, 0,62, 64
1, 19347, Note_on_c, 0,64, 77
1, 19372, Note_on_c, 0,62, 89
1, 19376, Note_off_c, 0,64, 64
1, 19399, Note_on_c, 0,63, 73
1, 19403, Note_off_c, 0,62, 64
1, 19417, Note_on_c, 0,59, 70
1, 19424, Note_off_c, 0,63, 64
1, 19446, Note_on_c, 0,59, 58
1, 19451, Note_off_c, 0,59, 64
1, 19477, Note_on_c, 0,62, 62
1, 19483, Note_off_c, 0,59, 64
1, 19492, Note_on_c, 0,59, 85
1, 19495, Note_off_c, 0,62, 64
1, 19517, Note_on_c, 0,59, 80
1, 19519, Note_off_c, 0,59, 64
1, 19541, Note_on_c, 0,61, 76
1, 19546, Note_off_c, 0,59, 64
1, 19557, Note_off_c, 0,61, 64
1, 19568, Note_on_c, 0,59, 73
1, 19576, Note_on_c, 0,57, 29
1, 19589, Note_off_c, 0,59, 64
1, 19608, Note_on_c, 0,64, 89
1, 19612, Note_off_c, 0,57, 64
1, 19635, Note_on_c, 0,64, 43
1, 19637, Note_off_c, 0,64, 64
1, 19638, Note_on_c, 0,71, 61
1, 19654, Note_on_c, 0,69, 74
1, 19654, Note_off_c, 0,64, 64
1, 19657, Note_off_c, 0,71, 64
1, 19674, Note_on_c, 0,64, 81
1, 19676, Note_off_c, 0,69, 64
1, 19695, Note_on_c, 0,66, 78
1, 19697, Note_off_c, 0,64, 64
1, 19720, Note_on_c, 0,62, 76
1, 19732, Note_off_c, 0,66, 64
1, 19746, Note_on_c, 0,62, 78
1, 19754, Note_off_c, 0,62, 64
1, 19765, Note_off_c, 0,62, 64
1, 19771, Note_on_c, 0,64, 80
1, 19792, Note_off_c, 0,64, 64
1, 19792, Note_on_c, 0,67, 87
1, 19820, Note_on_c, 0,66, 88
1, 19824, Note_off_c, 0,67, 64
1, 19843, Note_on_c, 0,64, 58
1, 19845, Note_on_c, 0,59, 62
1, 19846, Note_off_c, 0,66, 64
1, 19869, Note_off_c, 0,64, 64
1, 19887, Note_on_c, 0,59, 79
1, 19891, Note_off_c, 0,59, 64
1, 19909, Note_on_c, 0,61, 73
1, 19917, Note_off_c, 0,59, 64
1, 19933, Note_off_c, 0,61, 64
1, 19934, Note_on_c, 0,59, 76
1, 19959, Note_on_c, 0,61, 71
1, 19962, Note_off_c, 0,59, 64
1, 19988, Note_on_c, 0,59, 49
1, 20002, Note_off_c, 0,61, 64
1, 20007, Note_off_c, 0,59, 64
1, 20012, Note_on_c, 0,64, 74
1, 20034, Note_on_c, 0,66, 76
1, 20035, Note_off_c, 0,64, 64
1, 20058, Note_on_c, 0,62, 81
1, 20062, Note_off_c, 0,66, 64
1, 20082, Note_on_c, 0,62, 77
1, 20088, Note_off_c, 0,62, 64
1, 20098, Note_off_c, 0,62, 64
1, 20107, Note_on_c, 0,64, 74
1, 20128, Note_off_c, 0,64, 64
1, 20130, Note_on_c, 0,59, 62
1, 20156, Note_on_c, 0,55, 90
1, 20160, Note_off_c, 0,59, 64
1, 20180, Note_on_c, 0,64, 70
1, 20189, Note_off_c, 0,55, 64
1, 20204, Note_on_c, 0,59, 76
1, 20207, Note_off_c, 0,64, 64
1, 20226, Note_off_c, 0,59, 64
1, 20229, Note_on_c, 0,55, 64
1, 20250, Note_on_c, 0,57, 64
1, 20257, Note_off_c, 0,55, 64
1, 20273, Note_off_c, 0,57, 64
1, 20278, Note_on_c, 0,59, 58
1, 20303, Note_on_c, 0,62, 76
1, 20305, Note_off_c, 0,59, 64
1, 20323, Note_on_c, 0,59, 70
1, 20326, Note_off_c, 0,62, 64
1, 20353, Note_on_c, 0,59, 86
1, 20358, Note_off_c, 0,59, 64
1, 20379, Note_on_c, 0,59, 80
1, 20383, Note_off_c, 0,59, 64
1, 20403, Note_on_c, 0,64, 67
1, 20407, Note_off_c, 0,59, 64
1, 20422, Note_on_c, 0,66, 70
1, 20425, Note_off_c, 0,64, 64
1, 20449, Note_off_c, 0,66, 64
1, 20449, Note_on_c, 0,59, 104
1, 20476, Note_on_c, 0,69, 78
1, 20484, Note_off_c, 0,59, 64
1, 20496, Note_on_c, 0,59, 70
1, 20501, Note_off_c, 0,69, 64
1, 20526, Note_off_c, 0,59, 64
1, 20528, Note_on_c, 0,66, 73
1, 20549, Note_on_c, 0,64, 82
1, 20560, Note_off_c, 0,66, 64
1, 20567, Note_on_c, 0,62, 73
1, 20572, Note_off_c, 0,64, 64
1, 20588, Note_on_c, 0,59, 67
1, 20594, Note_off_c, 0,62, 64
1, 20614, Note_off_c, 0,59, 64
1, 20616, Note_on_c, 0,59, 65
1, 20639, Note_off_c, 0,59, 64
1, 20643, Note_on_c, 0,57, 88
1, 20668, Note_on_c, 0,64, 69
1, 20681, Note_off_c, 0,57, 64
1, 20692, Note_on_c, 0,64, 66
1, 20696, Note_off_c, 0,64, 64
1, 20716, Note_off_c, 0,64, 64
1, 20718, Note_on_c, 0,64, 70
1, 20739, Note_on_c, 0,66, 80
1, 20743, Note_off_c, 0,64, 64
1, 20762, Note_on_c, 0,67, 61
1, 20772, Note_off_c, 0,66, 64
1, 20787, Note_on_c, 0,64, 58
1, 20791, Note_off_c, 0,67, 64
1, 20806, Note_off_c, 0,64, 64
1, 20808, Note_on_c, 0,65, 73
1, 20835, Note_on_c, 0,67, 82
1, 20837, Note_off_c, 0,65, 64
1, 20857, Note_on_c, 0,66, 68
1, 20875, Note_off_c, 0,67, 64
1, 20880, Note_on_c, 0,67, 55
1, 20891, Note_off_c, 0,66, 64
1, 20898, Note_on_c, 0,66, 73
1, 20900, Note_off_c, 0,67, 64
1, 20925, Note_on_c, 0,67, 76
1, 20928, Note_off_c, 0,66, 64
1, 20952, Note_on_c, 0,69, 70
1, 20962, Note_off_c, 0,67, 64
1, 20981, Note_off_c, 0,69, 64
1, 20983, Note_on_c, 0,71, 73
1, 21002, Note_off_c, 0,71, 64
1, 21004, Note_on_c, 0,76, 88
1, 21030, Note_on_c, 0,66, 73
1, 21035, Note_off_c, 0,76, 64
1, 21052, Note_on_c, 0,69, 66
1, 21056, Note_off_c, 0,66, 64
1, 21075, Note_on_c, 0,71, 78
1, 21075, Note_off_c, 0,69, 64
1, 21106, Note_on_c, 0,76, 83
1, 21115, Note_off_c, 0,71, 64
1, 21135, Note_on_c, 0,73, 79
1, 21135, Note_off_c, 0,76, 64
1, 21154, Note_on_c, 0,71, 77
1, 21160, Note_off_c, 0,73, 64
1, 21178, Note_on_c, 0,71, 66
1, 21182, Note_off_c, 0,71, 64
1, 21195, Note_on_c, 0,64, 68
1, 21200, Note_off_c, 0,71, 64
1, 21219, Note_on_c, 0,64, 89
1, 21221, Note_off_c, 0,64, 64
1, 21241, Note_on_c, 0,71, 84
1, 21244, Note_off_c, 0,64, 64
1, 21261, Note_on_c, 0,73, 58
1, 21282, Note_on_c, 0,74, 74
1, 21285, Note_off_c, 0,71, 64
1, 21290, Note_off_c, 0,73, 64
1, 21304, Note_off_c, 0,74, 64
1, 21311, Note_on_c, 0,76, 89
1, 21332, Note_on_c, 0,79, 86
1, 21336, Note_off_c, 0,76, 64
1, 21358, Note_on_c, 0,81, 88
1, 21362, Note_off_c, 0,79, 64
1, 21388, Note_on_c, 0,83, 73
1, 21394, Note_off_c, 0,81, 64
1, 21409, Note_on_c, 0,84, 72
1, 21416, Note_off_c, 0,83, 64
1, 21438, Note_off_c, 0,84, 64
1, 21440, Note_on_c, 0,84, 62
1, 21463, Note_on_c, 0,86, 67
1, 21463, Note_off_c, 0,84, 64
1, 21497, Note_on_c, 0,89, 73
1, 21498, Note_on_c, 0,84, 40
1, 21502, Note_off_c, 0,86, 64
1, 21507, Note_off_c, 0,89, 64
1, 21517, Note_on_c, 0,83, 101
1, 21525, Note_off_c, 0,84, 64
1, 21637, Note_off_c, 0,83, 64
1, 21649, Note_on_c, 0,86, 80
1, 21651, Note_on_c, 0,88, 98
1, 21670, Note_on_c, 0,91, 83
1, 21672, Note_on_c, 0,86, 79
1, 21678, Note_off_c, 0,86, 64
1, 21803, Note_off_c, 0,88, 64
1, 21818, Note_off_c, 0,91, 64
1, 21826, Note_off_c, 0,86, 64
1, 21834, Note_on_c, 0,88, 88
1, 21842, Note_on_c, 0,91, 67
1, 21850, Note_on_c, 0,86, 64
1, 22510, Note_off_c, 0,88, 64
1, 22540, Note_off_c, 0,91, 64
1, 22540, Note_off_c, 0,86, 64
1, 22602, Note_on_c, 0,88, 60
1, 22603, Note_on_c, 0,91, 81
1, 22610, Note_on_c, 0,86, 77
1, 22614, Note_on_c, 0,88, 81
1, 22653, Note_off_c, 0,88, 64
1, 22653, Note_off_c, 0,91, 64
1, 22657, Note_off_c, 0,86, 64
1, 22667, Note_off_c, 0,88, 64
1, 22709, Note_on_c, 0,91, 92
1, 22710, Note_on_c, 0,86, 84
1, 22711, Note_on_c, 0,88, 87
1, 22711, Note_on_c, 0,89, 77
1, 22746, Note_off_c, 0,91, 64
1, 22751, Note_off_c, 0,86, 64
1, 22754, Note_off_c, 0,88, 64
1, 22763, Note_off_c, 0,89, 64
1, 22801, Note_on_c, 0,93, 83
1, 22802, Note_on_c, 0,91, 84
1, 22803, Note_on_c, 0,93, 90
1, 22803, Note_on_c, 0,90, 83
1, 22840, Note_off_c, 0,93, 64
1, 22845, Note_off_c, 0,91, 64
1, 22847, Note_off_c, 0,93, 64
1, 22848, Note_off_c, 0,90, 64
1, 22895, Note_on_c, 0,88, 87
1, 22897, Note_on_c, 0,86, 88
1, 22897, Note_on_c, 0,85, 77
1, 22936, Note_off_c, 0,88, 64
1, 22937, Note_off_c, 0,86, 64
1, 22940, Note_off_c, 0,85, 64
1, 22993, Note_on_c, 0,88, 97
1, 22993, Note_on_c, 0,86, 109
1, 22995, Note_on_c, 0,85, 93
1, 22995, Note_on_c, 0,88, 97
1, 23033, Note_off_c, 0,88, 64
1, 23041, Note_off_c, 0,86, 64
1, 23043, Note_off_c, 0,85, 64
1, 23051, Note_off_c, 0,88, 64
1, 23089, Note_on_c, 0,86, 92
1, 23091, Note_on_c, 0,85, 94
1, 23091, Note_on_c, 0,86, 88
1, 23130, Note_off_c, 0,86, 64
1, 23133, Note_off_c, 0,85, 64
1, 23133, Note_off_c, 0,86, 64
1, 23191, Note_on_c, 0,85, 67
1, 23193, Note_on_c, 0,88, 67
1, 23193, Note_on_c, 0,86, 62
1, 23343, Note_off_c, 0,85, 64
1, 23352, Note_off_c, 0,88, 64
1, 23357, Note_off_c, 0,86, 64
1, 23390, Note_on_c, 0,85, 55
1, 23394, Note_on_c, 0,88, 54
1, 23394, Note_on_c, 0,86, 50
1, 23395, Note_on_c, 0,85, 60
1, 23415, Note_off_c, 0,85, 64
1, 23512, Note_off_c, 0,88, 64
1, 23528, Note_off_c, 0,86, 64
1, 23546, Note_off_c, 0,85, 64
1, 23565, Note_on_c, 0,88, 52
1, 23568, Note_on_c, 0,86, 35
1, 23569, Note_on_c, 0,85, 40
1, 23580, Note_on_c, 0,83, 32
1, 23714, Note_off_c, 0,88, 64
1, 23719, Note_off_c, 0,86, 64
1, 23727, Note_off_c, 0,85, 64
1, 23727, Note_off_c, 0,83, 64
1, 23755, Note_on_c, 0,81, 41
1, 23764, Note_on_c, 0,85, 35
1, 23782, Note_on_c, 0,83, 48
1, 23798, Note_on_c, 0,81, 1
1, 23888, Note_off_c, 0,81, 64
1, 23894, Note_off_c, 0,85, 64
1, 23895, Note_off_c, 0,83, 64
1, 23901, Note_off_c, 0,81, 64
1, 23954, Note_on_c, 0,79, 50
1, 23955, Note_on_c, 0,78, 47
1, 23955, Note_on_c, 0,76, 41
1, 23969, Note_on_c, 0,74, 35
1, 24076, Note_off_c, 0,79, 64
1, 24083, Note_off_c, 0,78, 64
1, 24084, Note_off_c, 0,76, 64
1, 24090, Note_off_c, 0,74, 64
1, 24149, Note_on_c, 0,76, 78
1, 24150, Note_on_c, 0,81, 80
1, 24151, Note_on_c, 0,77, 73
1, 24151, Note_on_c, 0,79, 78
1, 24160, Note_off_c, 0,76, 64
1, 24160, Note_off_c, 0,81, 64
1, 24168, Note_off_c, 0,77, 64
1, 24170, Note_off_c, 0,79, 64
1, 24343, Note_on_c, 0,81, 57
1, 24343, Note_on_c, 0,84, 56
1, 24343, Note_on_c, 0,77, 56
1, 24345, Note_on_c, 0,79, 42
1, 24356, Note_off_c, 0,81, 64
1, 24357, Note_off_c, 0,84, 64
1, 24360, Note_off_c, 0,77, 64
1, 24363, Note_off_c, 0,79, 64
1, 24431, Note_on_c, 0,81, 55
1, 24433, Note_on_c, 0,83, 48
1, 24435, Note_on_c, 0,86, 56
1, 24435, Note_on_c, 0,81, 51
1, 24448, Note_off_c, 0,81, 64
1, 24451, Note_off_c, 0,83, 64
1, 24454, Note_off_c, 0,86, 64
1, 24462, Note_off_c, 0,81, 64
1, 24533, Note_on_c, 0,83, 49
1, 24533, Note_on_c, 0,86, 51
1, 24534, Note_on_c, 0,88, 54
1, 24535, Note_on_c, 0,89, 37
1, 24545, Note_off_c, 0,83, 64
1, 24547, Note_off_c, 0,86, 64
1, 24554, Note_off_c, 0,88, 64
1, 24562, Note_off_c, 0,89, 64
1, 24583, Note_on_c, 0,88, 60
1, 24587, Note_on_c, 0,85, 68
1, 24590, Note_on_c, 0,83, 70
1, 24608, Note_off_c, 0,88, 64
1, 24608, Note_off_c, 0,85, 64
1, 24611, Note_off_c, 0,83, 64
1, 24919, Note_on_c, 0,81, 86
1, 24919, Note_on_c, 0,79, 95
1, 25091, Note_off_c, 0,81, 64
1, 25092, Note_off_c, 0,79, 64
1, 25092, End_track
0, 0, End_of_file
